<?xml version="1.0" standalone="no"?>
<!DOCTYPE svg PUBLIC "-//W3C//DTD SVG 20010904//EN"
 "http://www.w3.org/TR/2001/REC-SVG-20010904/DTD/svg10.dtd">
<svg version="1.0" xmlns="http://www.w3.org/2000/svg"
 width="513.000000pt" height="456.000000pt" viewBox="0 0 513.000000 456.000000"
 preserveAspectRatio="xMidYMid meet">

<g transform="translate(0.000000,456.000000) scale(0.100000,-0.100000)"
fill="#000000" stroke="none">
<path d="M3795 4311 c-69 -32 -166 -148 -276 -329 -22 -35 -39 -66 -39 -68 0
-2 -15 -27 -33 -56 -34 -54 -215 -390 -238 -441 -17 -37 -50 -43 -123 -24
-109 29 -259 48 -373 48 -147 0 -380 -34 -455 -65 -21 -9 -46 -16 -56 -16 -28
0 -163 -58 -187 -79 -11 -11 -37 -26 -57 -34 -50 -21 -268 -198 -342 -278 -33
-35 -90 -105 -128 -156 -37 -51 -74 -93 -82 -93 -13 0 -137 32 -381 99 -300
81 -389 102 -570 131 -145 24 -250 25 -299 5 -33 -14 -36 -19 -36 -54 0 -29 9
-51 33 -83 18 -24 41 -56 51 -73 11 -16 40 -52 66 -80 25 -27 63 -74 84 -102
21 -29 43 -56 49 -60 24 -16 138 -163 151 -195 12 -29 11 -42 -4 -103 -52
-199 -51 -470 2 -650 36 -124 49 -155 102 -242 100 -167 239 -292 366 -329 94
-27 155 -57 165 -81 4 -10 16 -103 27 -208 11 -104 23 -224 28 -265 4 -41 11
-110 15 -152 9 -90 19 -103 71 -93 79 14 209 171 356 428 44 78 95 167 113
197 18 30 60 109 93 176 33 66 68 126 77 134 15 12 29 11 103 -8 145 -36 230
-46 382 -44 159 1 386 33 437 60 12 7 32 12 46 12 30 0 163 58 199 86 15 12
42 27 60 35 18 7 58 32 88 56 203 158 277 230 375 368 37 52 71 98 76 101 10
6 77 -11 499 -128 236 -66 564 -128 674 -128 27 0 63 8 86 20 33 17 40 25 40
51 0 17 -5 40 -11 52 -19 34 -119 167 -148 195 -15 15 -38 43 -51 62 -13 19
-46 61 -74 92 -168 188 -175 201 -147 301 22 80 41 241 41 351 0 86 -23 239
-45 310 -9 28 -21 67 -27 86 -11 37 -69 140 -126 225 -81 119 -203 214 -318
249 -124 37 -153 54 -164 95 -5 20 -14 97 -20 171 -5 74 -14 162 -19 195 -12
75 -31 251 -31 287 0 17 -9 33 -22 42 -27 19 -24 20 -73 -3z m-961 -1278 c3
-10 12 -54 21 -98 10 -44 23 -105 30 -135 7 -30 22 -98 34 -150 20 -88 101
-402 105 -407 1 -2 82 25 180 58 98 33 181 58 183 55 6 -6 81 -320 90 -376 l5
-35 -108 -47 c-195 -84 -617 -258 -625 -258 -8 0 -12 13 -78 225 -22 72 -76
245 -119 385 -119 379 -195 640 -190 645 6 6 439 153 455 154 6 1 14 -7 17
-16z m-539 -280 c10 -38 35 -129 55 -203 21 -74 59 -211 85 -305 26 -93 53
-190 60 -215 7 -25 25 -90 40 -145 15 -55 40 -145 56 -200 16 -55 25 -103 21
-106 -6 -6 -164 -70 -308 -124 l-61 -24 -21 52 c-12 29 -35 90 -51 137 -16 47
-68 191 -116 320 -48 129 -113 307 -145 395 -32 88 -70 191 -84 228 -15 38
-24 72 -21 76 4 7 115 53 365 150 107 41 105 42 125 -36z"/>
</g>
</svg>
